HIERARCHY
ROOT hips
{
	OFFSET -0.003675 0.299928 -0.021708
	CHANNELS 6 Xposition Yposition Zposition Xrotation Yrotation Zrotation
	JOINT LowerBack
	{
		OFFSET 0.000919 0.177588 0.009275
		CHANNELS 3 Xrotation Yrotation Zrotation
		JOINT spine
		{
			OFFSET 0.000919 0.177588 0.009275
			CHANNELS 3 Xrotation Yrotation Zrotation
			JOINT chest
			{
				OFFSET 0.000456 0.100015 0.004638
				CHANNELS 3 Xrotation Yrotation Zrotation
				JOINT neck
				{
					OFFSET 0.000456 0.100015 0.004638
					CHANNELS 3 Xrotation Yrotation Zrotation
					JOINT head
					{
						OFFSET 0.000924 0.155147 0.009274
						CHANNELS 6 Xposition Yposition Zposition Xrotation Yrotation Zrotation
						End Site
						{
							OFFSET 0.000000 0.153400 0.000000
						}
					}
				}
				JOINT shoulder.L
				{
					OFFSET 0.019937 0.078966 0.057518
					CHANNELS 6 Xposition Yposition Zposition Yrotation Xrotation Zrotation
					JOINT upper_arm.L
					{
						OFFSET 0.177024 -0.020465 -0.095062
						CHANNELS 6 Xposition Yposition Zposition Xrotation Yrotation Zrotation
						JOINT forearm.L
						{
							OFFSET 0.247100 -0.135500 -0.061800
							CHANNELS 3 Xrotation Yrotation Zrotation
							JOINT hand.L
							{
								OFFSET 0.217000 -0.143000 0.039300
								CHANNELS 3 Xrotation Yrotation Zrotation
								JOINT palm.01.L
								{
									OFFSET 0.021770 -0.038291 0.012954
									CHANNELS 6 Xposition Yposition Zposition Yrotation Xrotation Zrotation
									JOINT f_index.01.L
									{
										OFFSET 0.053215 -0.044137 0.008236
										CHANNELS 3 Xrotation Yrotation Zrotation
										JOINT f_index.02.L
										{
											OFFSET 0.036108 -0.024723 -0.010656
											CHANNELS 3 Xrotation Yrotation Zrotation
											JOINT f_index.03.L
											{
												OFFSET 0.021342 -0.014948 -0.010846
												CHANNELS 3 Xrotation Yrotation Zrotation
												End Site
												{
													OFFSET 0.015600 -0.009860 -0.013421
												}
											}
										}
									}
									JOINT thumb.01.L
									{
										OFFSET -0.009090 -0.002348 -0.024223
										CHANNELS 6 Xposition Yposition Zposition Xrotation Yrotation Zrotation
										JOINT thumb.02.L
										{
											OFFSET 0.019713 -0.035076 -0.011120
											CHANNELS 3 Xrotation Yrotation Zrotation
											JOINT thumb.03.L
											{
												OFFSET 0.024877 -0.021748 -0.005176
												CHANNELS 3 Xrotation Yrotation Zrotation
												End Site
												{
													OFFSET 0.016125 -0.013029 -0.001569
												}
											}
										}
									}
								}
								JOINT palm.02.L
								{
									OFFSET 0.032823 -0.025104 0.012281
									CHANNELS 6 Xposition Yposition Zposition Yrotation Xrotation Zrotation
									JOINT f_middle.01.L
									{
										OFFSET 0.055723 -0.038469 0.008037
										CHANNELS 3 Xrotation Yrotation Zrotation
										JOINT f_middle.02.L
										{
											OFFSET 0.038167 -0.027473 -0.015582
											CHANNELS 3 Xrotation Yrotation Zrotation
											JOINT f_middle.03.L
											{
												OFFSET 0.021707 -0.016587 -0.017037
												CHANNELS 3 Xrotation Yrotation Zrotation
												End Site
												{
													OFFSET 0.014112 -0.010584 -0.014294
												}
											}
										}
									}
								}
								JOINT palm.03.L
								{
									OFFSET 0.039230 -0.011402 0.008390
									CHANNELS 6 Xposition Yposition Zposition Yrotation Xrotation Zrotation
									JOINT f_ring.01.L
									{
										OFFSET 0.061796 -0.031470 0.007910
										CHANNELS 3 Xrotation Yrotation Zrotation
										JOINT f_ring.02.L
										{
											OFFSET 0.033092 -0.023401 -0.019127
											CHANNELS 3 Xrotation Yrotation Zrotation
											JOINT f_ring.03.L
											{
												OFFSET 0.021392 -0.015362 -0.017824
												CHANNELS 3 Xrotation Yrotation Zrotation
												End Site
												{
													OFFSET 0.008670 -0.007297 -0.014686
												}
											}
										}
									}
								}
								JOINT palm.04.L
								{
									OFFSET 0.043417 0.002450 0.002889
									CHANNELS 6 Xposition Yposition Zposition Yrotation Xrotation Zrotation
									JOINT f_pinky.01.L
									{
										OFFSET 0.069986 -0.026156 0.003627
										CHANNELS 3 Xrotation Yrotation Zrotation
										JOINT f_pinky.02.L
										{
											OFFSET 0.018520 -0.012813 -0.016429
											CHANNELS 3 Xrotation Yrotation Zrotation
											JOINT f_pinky.03.L
											{
												OFFSET 0.013822 -0.009796 -0.014947
												CHANNELS 3 Xrotation Yrotation Zrotation
												End Site
												{
													OFFSET 0.007238 -0.006103 -0.011657
												}
											}
										}
									}
								}
							}
						}
					}
				}
				JOINT shoulder.R
				{
					OFFSET -0.016662 0.078957 0.057696
					CHANNELS 6 Xposition Yposition Zposition Yrotation Xrotation Zrotation
					JOINT upper_arm.R
					{
						OFFSET -0.176972 -0.020537 -0.095144
						CHANNELS 6 Xposition Yposition Zposition Xrotation Yrotation Zrotation
						JOINT forearm.R
						{
							OFFSET -0.247100 -0.135500 -0.061800
							CHANNELS 3 Xrotation Yrotation Zrotation
							JOINT hand.R
							{
								OFFSET -0.217000 -0.143000 0.039300
								CHANNELS 3 Xrotation Yrotation Zrotation
								JOINT palm.01.R
								{
									OFFSET -0.021773 -0.038278 0.012988
									CHANNELS 6 Xposition Yposition Zposition Yrotation Xrotation Zrotation
									JOINT f_index.01.R
									{
										OFFSET -0.053212 -0.044139 0.008249
										CHANNELS 3 Xrotation Yrotation Zrotation
										JOINT f_index.02.R
										{
											OFFSET -0.036049 -0.024835 -0.010634
											CHANNELS 3 Xrotation Yrotation Zrotation
											JOINT f_index.03.R
											{
												OFFSET -0.021371 -0.014881 -0.010866
												CHANNELS 3 Xrotation Yrotation Zrotation
												End Site
												{
													OFFSET -0.015584 -0.009883 -0.013422
												}
											}
										}
									}
									JOINT thumb.01.R
									{
										OFFSET 0.009113 -0.002381 -0.024211
										CHANNELS 6 Xposition Yposition Zposition Xrotation Yrotation Zrotation
										JOINT thumb.02.R
										{
											OFFSET -0.019694 -0.035097 -0.011088
											CHANNELS 3 Xrotation Yrotation Zrotation
											JOINT thumb.03.R
											{
												OFFSET -0.024867 -0.021762 -0.005168
												CHANNELS 3 Xrotation Yrotation Zrotation
												End Site
												{
													OFFSET -0.016120 -0.013036 -0.001565
												}
											}
										}
									}
								}
								JOINT palm.02.R
								{
									OFFSET -0.032828 -0.025095 0.012286
									CHANNELS 6 Xposition Yposition Zposition Yrotation Xrotation Zrotation
									JOINT f_middle.01.R
									{
										OFFSET -0.055721 -0.038472 0.008040
										CHANNELS 3 Xrotation Yrotation Zrotation
										JOINT f_middle.02.R
										{
											OFFSET -0.038101 -0.027593 -0.015557
											CHANNELS 3 Xrotation Yrotation Zrotation
											JOINT f_middle.03.R
											{
												OFFSET -0.021730 -0.016530 -0.017054
												CHANNELS 3 Xrotation Yrotation Zrotation
												End Site
												{
													OFFSET -0.014096 -0.010608 -0.014293
												}
											}
										}
									}
								}
								JOINT palm.03.R
								{
									OFFSET -0.039192 -0.011488 0.008390
									CHANNELS 6 Xposition Yposition Zposition Yrotation Xrotation Zrotation
									JOINT f_ring.01.R
									{
										OFFSET -0.061839 -0.031387 0.007876
										CHANNELS 3 Xrotation Yrotation Zrotation
										JOINT f_ring.02.R
										{
											OFFSET -0.033068 -0.023437 -0.019125
											CHANNELS 3 Xrotation Yrotation Zrotation
											JOINT f_ring.03.R
											{
												OFFSET -0.021371 -0.015393 -0.017822
												CHANNELS 3 Xrotation Yrotation Zrotation
												End Site
												{
													OFFSET -0.008654 -0.007321 -0.014684
												}
											}
										}
									}
								}
								JOINT palm.04.R
								{
									OFFSET -0.043421 0.002443 0.002845
									CHANNELS 6 Xposition Yposition Zposition Yrotation Xrotation Zrotation
									JOINT f_pinky.01.R
									{
										OFFSET -0.069983 -0.026169 0.003599
										CHANNELS 3 Xrotation Yrotation Zrotation
										JOINT f_pinky.02.R
										{
											OFFSET -0.018501 -0.012842 -0.016428
											CHANNELS 3 Xrotation Yrotation Zrotation
											JOINT f_pinky.03.R
											{
												OFFSET -0.013806 -0.009821 -0.014946
												CHANNELS 3 Xrotation Yrotation Zrotation
												End Site
												{
													OFFSET -0.007226 -0.006121 -0.011655
												}
											}
										}
									}
								}
							}
						}
					}
				}
			}
		}
	}
	JOINT pelvis.L
	{
		OFFSET 0.000000 0.000000 0.000000
		CHANNELS 6 Xposition Yposition Zposition Xrotation Yrotation Zrotation
		JOINT thigh.L
		{
			OFFSET 0.101675 0.001054 -0.000000
			CHANNELS 3 Xrotation Yrotation Zrotation
			JOINT shin.L
			{
				OFFSET 0.000000 -0.534800 0.041000
				CHANNELS 3 Xrotation Yrotation Zrotation
				JOINT foot.L
				{
					OFFSET 0.000000 -0.452000 -0.044800
					CHANNELS 3 Xrotation Yrotation Zrotation
					JOINT toe.L
					{
						OFFSET -0.000000 -0.068500 0.109600
						CHANNELS 3 Xrotation Yrotation Zrotation
						End Site
						{
							OFFSET -0.000000 0.000000 0.067200
						}
					}
				}
				JOINT heel.L
				{
					OFFSET 0.000000 -0.452000 -0.044800
					CHANNELS 3 Xrotation Yrotation Zrotation
					JOINT heel.02.L
					{
						OFFSET -0.038000 -0.085200 0.016200
						CHANNELS 6 Xposition Yposition Zposition Xrotation Yrotation Zrotation
						End Site
						{
							OFFSET 0.080000 -0.000000 0.000000
						}
					}
				}
			}
		}
	}
	JOINT pelvis.R
	{
		OFFSET 0.000000 0.000000 0.000000
		CHANNELS 6 Xposition Yposition Zposition Xrotation Yrotation Zrotation
		JOINT thigh.R
		{
			OFFSET -0.094325 0.001054 0.000000
			CHANNELS 3 Xrotation Yrotation Zrotation
			JOINT shin.R
			{
				OFFSET 0.000000 -0.534800 0.041000
				CHANNELS 3 Xrotation Yrotation Zrotation
				JOINT foot.R
				{
					OFFSET 0.000000 -0.452000 -0.044800
					CHANNELS 3 Xrotation Yrotation Zrotation
					JOINT toe.R
					{
						OFFSET -0.000000 -0.068500 0.109600
						CHANNELS 3 Xrotation Yrotation Zrotation
						End Site
						{
							OFFSET -0.000000 0.000000 0.067200
						}
					}
				}
				JOINT heel.R
				{
					OFFSET 0.000000 -0.452000 -0.044800
					CHANNELS 3 Xrotation Yrotation Zrotation
					JOINT heel.02.R
					{
						OFFSET 0.038000 -0.085200 0.016200
						CHANNELS 6 Xposition Yposition Zposition Xrotation Yrotation Zrotation
						End Site
						{
							OFFSET -0.080000 0.000000 -0.000000
						}
					}
				}
			}
		}
	}
}
MOTION
Frames: 4
Frame Time: 0.041667
-0.003970 0.267207 -0.023402 64.365182 -38.899690 62.120898 0.000004 -0.000001 -0.000000 -0.000003 -0.000002 0.000000 0.000001 0.000002 -0.000003 -0.000004 0.000001 -0.000004 0.000924 0.155148 0.009274 9.999151 -0.014393 0.873272 0.019937 0.078966 0.057518 -48.636247 8.731092 43.618923 0.177025 -0.020465 -0.095062 -79.094875 24.385836 -49.665666 -9.931120 -14.464956 0.611768 -0.000003 0.000000 -0.000004 0.021770 -0.038291 0.012954 -0.000001 0.000001 0.000005 -0.000001 -0.000006 0.000001 0.000001 -0.000003 0.000003 -0.000000 0.000005 -0.000003 -0.009090 -0.002348 -0.024223 0.000001 -0.000004 0.000000 0.000004 -0.000000 0.000001 -0.000001 0.000001 0.000003 0.032823 -0.025104 0.012281 -0.000003 -0.000000 0.000004 -0.000001 -0.000002 -0.000005 -0.000004 0.000004 -0.000002 0.000000 0.000001 0.000001 0.039230 -0.011402 0.008390 -0.000000 0.000001 0.000006 -0.000000 0.000000 -0.000000 -0.000001 0.000001 0.000001 0.000001 -0.000007 0.000005 0.043417 0.002450 0.002889 -0.000002 0.000001 -0.000000 -0.000000 -0.000003 0.000001 0.000001 0.000004 -0.000001 -0.000003 -0.000003 -0.000002 -0.016662 0.078957 0.057696 -26.697917 6.080237 -24.356941 -0.176972 -0.020537 -0.095144 -40.169869 -6.942114 51.461562 -40.529311 22.194681 31.871012 -0.000006 0.000002 -0.000002 -0.021773 -0.038278 0.012988 0.000002 -0.000003 0.000002 0.000000 -0.000001 -0.000005 -0.000001 -0.000002 -0.000005 0.000002 0.000000 0.000004 0.009113 -0.002381 -0.024211 0.000001 0.000000 -0.000001 -0.000001 0.000003 0.000002 0.000002 -0.000000 -0.000006 -0.032828 -0.025095 0.012286 0.000003 -0.000001 0.000001 0.000002 -0.000000 0.000001 -0.000002 0.000002 -0.000004 -0.000003 0.000003 -0.000002 -0.039192 -0.011488 0.008390 0.000001 0.000001 0.000003 -0.000001 0.000003 -0.000003 0.000000 0.000002 -0.000007 -0.000001 -0.000004 -0.000003 -0.043421 0.002443 0.002844 -0.000001 -0.000001 0.000000 -0.000004 -0.000003 -0.000001 0.000001 -0.000003 0.000000 -0.000002 0.000000 0.000003 0.000000 0.000000 0.000000 -1.968858 0.620907 -8.093804 -34.342454 0.381073 7.257152 41.159703 0.809651 -8.195237 -0.000007 0.000000 -0.000000 -0.000003 0.000002 -0.000002 -0.000002 -0.000001 0.000001 -0.038000 -0.085200 0.016200 0.000003 0.000001 -0.000005 -0.000000 0.000000 0.000000 -1.905143 0.612514 -6.860317 -64.964880 1.038047 9.512480 50.399911 2.078239 -21.475556 0.000002 -0.000000 0.000002 0.000001 -0.000001 0.000001 0.000002 -0.000001 0.000001 0.038000 -0.085200 0.016200 -0.000003 0.000003 -0.000003 
-0.000503 0.264555 -0.025744 59.414654 -39.275654 56.339977 0.000000 0.000001 -0.000001 -0.000001 -0.000001 0.000000 0.000004 0.000000 0.000001 0.000003 -0.000000 0.000001 0.000924 0.155148 0.009274 9.485403 -0.014581 4.453362 0.019937 0.078966 0.057518 -38.996108 6.546409 43.445747 0.177025 -0.020465 -0.095062 -81.227219 24.443041 -49.209163 -10.600095 -13.409395 -4.329797 -0.000002 -0.000003 0.000002 0.021770 -0.038291 0.012954 -0.000002 -0.000002 -0.000002 0.000000 -0.000000 -0.000002 0.000000 -0.000000 0.000005 -0.000000 0.000003 -0.000000 -0.009090 -0.002348 -0.024223 0.000000 -0.000002 0.000000 0.000003 -0.000005 -0.000002 0.000001 -0.000001 -0.000002 0.032823 -0.025104 0.012281 -0.000003 -0.000001 0.000005 0.000002 0.000003 -0.000005 -0.000004 -0.000003 0.000001 -0.000002 0.000001 0.000001 0.039230 -0.011402 0.008390 -0.000001 -0.000000 0.000004 -0.000001 0.000003 0.000001 0.000003 0.000008 -0.000002 0.000003 -0.000004 0.000003 0.043417 0.002450 0.002889 -0.000004 -0.000003 -0.000003 -0.000001 -0.000006 -0.000002 0.000000 -0.000000 -0.000001 -0.000002 0.000000 -0.000003 -0.016662 0.078956 0.057696 -19.817480 4.929984 -27.906655 -0.176972 -0.020537 -0.095144 -50.573572 -7.375779 50.566052 -42.549227 19.316016 36.744420 -0.000001 0.000001 0.000002 -0.021773 -0.038278 0.012988 -0.000002 0.000002 -0.000002 -0.000000 0.000004 0.000001 -0.000001 -0.000004 -0.000003 -0.000000 0.000005 0.000002 0.009113 -0.002381 -0.024212 0.000001 -0.000001 0.000001 -0.000001 -0.000001 0.000000 0.000001 0.000001 -0.000008 -0.032828 -0.025095 0.012286 0.000004 -0.000000 -0.000001 0.000002 -0.000000 0.000001 -0.000000 -0.000001 -0.000001 -0.000003 0.000005 -0.000006 -0.039192 -0.011488 0.008390 0.000002 0.000002 0.000001 -0.000001 0.000006 -0.000002 -0.000001 -0.000000 -0.000000 -0.000004 0.000000 -0.000004 -0.043421 0.002442 0.002844 0.000003 -0.000000 0.000004 -0.000003 0.000004 0.000003 -0.000002 -0.000000 -0.000000 0.000001 0.000002 0.000004 -0.000000 0.000000 0.000000 -1.991859 0.459405 -6.230857 -51.313555 0.064974 3.928104 65.498543 0.496873 -5.017493 0.000002 0.000001 -0.000001 -0.000001 0.000001 -0.000001 0.000003 -0.000002 0.000004 -0.038000 -0.085200 0.016200 -0.000001 -0.000000 0.000000 -0.000000 0.000000 0.000000 -1.933239 0.453617 -4.997152 -63.812880 0.868423 7.197214 54.655082 1.468571 -14.989265 0.000007 0.000001 0.000002 0.000001 -0.000000 0.000001 0.000007 0.000004 -0.000002 0.038000 -0.085200 0.016200 -0.000003 -0.000003 0.000003 
0.002295 0.266911 -0.021712 73.893167 -44.026795 69.762801 0.000001 -0.000002 0.000001 0.000002 -0.000000 0.000001 -0.000000 0.000001 -0.000000 -0.000005 0.000000 0.000000 0.000924 0.155147 0.009274 7.291070 -0.009645 0.003734 0.019937 0.078966 0.057518 -35.492368 5.221253 41.385383 0.177024 -0.020465 -0.095062 -76.827013 17.035644 -47.583906 -12.825498 -20.817947 4.186714 -0.000001 -0.000001 -0.000000 0.021770 -0.038291 0.012954 -0.000004 0.000001 -0.000002 -0.000003 -0.000001 -0.000000 -0.000002 -0.000001 0.000007 0.000002 0.000001 -0.000000 -0.009090 -0.002348 -0.024223 -0.000000 -0.000003 0.000004 -0.000004 -0.000001 -0.000001 -0.000001 -0.000001 -0.000002 0.032823 -0.025104 0.012281 -0.000004 -0.000000 0.000002 0.000002 0.000004 -0.000003 -0.000003 0.000000 0.000001 0.000001 -0.000002 0.000002 0.039230 -0.011402 0.008390 -0.000001 0.000001 0.000003 0.000001 0.000000 -0.000000 0.000001 0.000006 0.000001 0.000001 -0.000002 0.000003 0.043417 0.002450 0.002889 -0.000004 -0.000000 -0.000003 -0.000000 0.000001 -0.000002 0.000001 -0.000001 -0.000000 -0.000002 -0.000005 -0.000001 -0.016662 0.078957 0.057696 -17.297864 4.063437 -27.333497 -0.176972 -0.020537 -0.095144 -48.505681 -6.653378 49.648071 -52.102186 24.687169 35.781613 0.000001 0.000002 0.000002 -0.021773 -0.038278 0.012988 0.000001 -0.000002 0.000000 -0.000001 0.000004 0.000001 0.000002 -0.000000 0.000001 -0.000001 0.000003 0.000002 0.009114 -0.002381 -0.024211 0.000001 0.000003 0.000003 -0.000000 -0.000004 0.000000 0.000002 -0.000003 0.000001 -0.032828 -0.025095 0.012286 0.000003 -0.000000 -0.000001 0.000003 0.000002 0.000001 0.000002 -0.000003 -0.000001 -0.000002 0.000003 -0.000004 -0.039192 -0.011488 0.008390 0.000001 0.000001 0.000001 0.000002 0.000007 0.000000 0.000003 0.000001 0.000002 0.000001 -0.000003 -0.000000 -0.043421 0.002443 0.002845 -0.000001 0.000002 -0.000001 -0.000003 0.000002 -0.000001 -0.000000 -0.000004 -0.000000 -0.000002 0.000003 -0.000000 0.000000 0.000000 0.000000 -2.004889 0.372804 -5.233211 -60.572597 -0.142186 1.476587 54.485481 0.667942 -6.752859 0.000002 0.000000 -0.000001 -0.000003 -0.000001 0.000000 0.000002 -0.000001 0.000001 -0.038000 -0.085200 0.016200 -0.000001 0.000002 -0.000001 0.000000 0.000000 0.000000 -1.948998 0.368257 -3.999399 -63.900586 0.696878 4.980773 47.856506 1.229294 -12.502534 0.000000 0.000000 0.000002 0.000001 -0.000001 0.000001 0.000005 -0.000000 -0.000000 0.038000 -0.085200 0.016200 -0.000003 -0.000001 0.000000 
0.002942 0.271659 -0.018078 97.513538 -47.875883 87.875629 -0.000001 0.000000 0.000001 -0.000005 -0.000001 0.000001 -0.000004 0.000001 0.000000 -0.000005 0.000001 0.000000 0.000924 0.155147 0.009274 9.774653 -0.013874 0.561262 0.019937 0.078966 0.057518 -26.989465 3.643748 38.446271 0.177024 -0.020465 -0.095062 -72.747894 20.016687 -50.902408 -15.686397 -24.851119 3.654674 -0.000002 -0.000001 0.000003 0.021770 -0.038291 0.012954 0.000003 0.000000 0.000001 -0.000001 0.000001 0.000005 0.000001 0.000005 0.000005 -0.000000 0.000003 -0.000002 -0.009090 -0.002348 -0.024224 0.000001 0.000000 -0.000001 0.000003 0.000004 0.000003 -0.000000 -0.000004 -0.000002 0.032823 -0.025104 0.012281 0.000001 -0.000001 0.000005 0.000001 0.000002 -0.000005 -0.000002 0.000002 0.000004 -0.000002 -0.000002 0.000002 0.039230 -0.011402 0.008390 -0.000001 -0.000001 0.000006 0.000002 0.000001 -0.000002 0.000003 0.000001 0.000003 0.000002 -0.000002 0.000003 0.043417 0.002450 0.002889 0.000000 0.000001 0.000000 -0.000001 -0.000001 -0.000000 0.000001 0.000006 -0.000002 -0.000001 -0.000001 -0.000001 -0.016662 0.078957 0.057696 -12.879471 4.279107 -30.831532 -0.176972 -0.020537 -0.095144 -48.220207 -9.879970 53.390199 -48.386826 19.920848 38.689374 0.000002 0.000002 -0.000000 -0.021773 -0.038278 0.012988 -0.000001 -0.000002 -0.000007 0.000000 -0.000001 0.000000 0.000000 -0.000002 -0.000003 -0.000003 0.000002 0.000005 0.009113 -0.002381 -0.024211 0.000002 -0.000007 0.000001 0.000001 -0.000002 -0.000001 -0.000002 -0.000000 -0.000003 -0.032828 -0.025095 0.012286 0.000002 -0.000001 -0.000003 -0.000000 0.000001 -0.000003 -0.000002 0.000000 -0.000000 -0.000002 0.000000 -0.000000 -0.039192 -0.011488 0.008390 0.000002 0.000000 -0.000002 -0.000000 0.000003 -0.000002 0.000002 -0.000003 -0.000000 -0.000004 0.000003 -0.000002 -0.043421 0.002443 0.002845 -0.000001 0.000000 -0.000003 -0.000001 0.000006 0.000003 -0.000003 0.000003 0.000003 -0.000002 0.000000 0.000003 -0.000000 0.000000 0.000000 -1.935231 0.074253 -1.844413 -61.226833 0.093843 4.460923 31.238837 -0.081358 0.822929 0.000000 0.000000 0.000001 -0.000003 -0.000000 0.000000 -0.000002 0.000000 0.000000 -0.038000 -0.085200 0.016200 0.000002 -0.000000 -0.000001 -0.000000 0.000000 0.000000 -1.891206 0.073293 -0.610291 -58.021296 0.549770 3.351049 34.838077 0.845966 -8.566965 -0.000002 -0.000001 0.000002 -0.000001 0.000001 0.000001 0.000007 -0.000001 0.000002 0.038000 -0.085200 0.016200 -0.000001 0.000000 -0.000000 
